<svg xmlns="http://www.w3.org/2000/svg" height="48" viewBox="0 -960 960 960" width="48"><path d="M450-565h229v-57H450v57Zm0 227h229v-57H450v57ZM348.212-543q21.6 0 36.194-14.244Q399-571.487 399-593q0-22.812-14.806-36.906Q369.388-644 347.788-644t-35.694 14.094Q298-615.812 298-593.5q0 22.312 14.306 36.406Q326.612-543 348.212-543Zm0 226q21.6 0 36.194-13.594Q399-344.188 399-366.5q0-22.312-14.806-36.906Q369.388-418 347.788-418t-35.694 14.744Q298-388.513 298-367q0 22.812 14.306 36.406Q326.612-317 348.212-317ZM189-98q-37.175 0-64.088-26.912Q98-151.825 98-189v-582q0-37.588 26.912-64.794Q151.825-863 189-863h582q37.588 0 64.794 27.206Q863-808.588 863-771v582q0 37.175-27.206 64.088Q808.588-98 771-98H189Zm0-91h582v-582H189v582Zm0-582v582-582Z"/></svg>